<svg xmlns="http://www.w3.org/2000/svg" viewBox="0 0 980 250" fill="none">
  <defs>
    <linearGradient id="icon-gradient" x1="70" y1="28" x2="240" y2="210" gradientUnits="userSpaceOnUse">
      <stop offset="0" stop-color="#0A42B9"/>
      <stop offset="0.44" stop-color="#1473EB"/>
      <stop offset="1" stop-color="#42C3FF"/>
    </linearGradient>
    <linearGradient id="text-gradient" x1="390" y1="64" x2="390" y2="184" gradientUnits="userSpaceOnUse">
      <stop offset="0" stop-color="#57D0FF"/>
      <stop offset="0.48" stop-color="#1992FF"/>
      <stop offset="1" stop-color="#0A42B9"/>
    </linearGradient>
    <linearGradient id="sweep-gradient" x1="250" y1="178" x2="760" y2="230" gradientUnits="userSpaceOnUse">
      <stop offset="0" stop-color="#1AA5FF"/>
      <stop offset="0.62" stop-color="#5FD1FF"/>
      <stop offset="1" stop-color="#1495FF"/>
    </linearGradient>
  </defs>
  <path d="M72 20C86 20 100 23.4 112.3 29.9L176.2 64.4C199.3 76.9 209 104.2 199.8 128.7C195.2 140.7 187.1 151 176.5 158.4L123.3 195.8C106.6 207.5 83.7 208.5 66.1 198.4C48.6 188.2 37.8 169.5 37.8 149.2V55.8C37.8 35.8 54 20 72 20Z" fill="url(#icon-gradient)"/>
  <path d="M67.8 132.6C92.8 118 125 110.4 164.4 110.1C156.8 137.1 139.9 161.6 113.2 187.1L52.7 184.4L67.8 132.6Z" fill="#0A42B9" opacity=".62"/>
  <path d="M75 114.8L128.1 115.5C151 115.8 167.7 105.9 178.5 85.8C171.1 106.9 155.8 123.4 132.4 135.4L76.4 161L75 114.8Z" fill="#62D4FF"/>
  <path d="M81.4 94.3L148.3 94.9L99.3 129.2L81.4 142V94.3Z" fill="#081223"/>
  <path d="M93.8 101.1L140.1 101.4L105.9 125.6L93.8 134.1V101.1Z" fill="white"/>
  <path d="M65.6 55.8L71.1 66.8L83.5 68.6L74.5 77.2L76.7 89.4L65.6 83.5L54.5 89.4L56.6 77.2L47.7 68.6L60.1 66.8L65.6 55.8Z" fill="white"/>
  <path d="M101.6 63.2L106.2 72.5L116.7 74L109.1 81.4L110.9 91.7L101.6 86.8L92.3 91.7L94.1 81.4L86.5 74L97 72.5L101.6 63.2Z" fill="white"/>
  <path d="M137.8 72L142.4 81.3L152.8 82.8L145.2 90.2L147 100.4L137.8 95.6L128.5 100.4L130.3 90.2L122.7 82.8L133.2 81.3L137.8 72Z" fill="#081223"/>
  <text x="292" y="152" fill="url(#text-gradient)" font-family="Avenir Next, Inter, Arial, sans-serif" font-size="130" font-weight="900" letter-spacing="-7">PolitiViral</text>
  <path d="M255 186C360 167 494 164 653 177C739 184 811 184 870 176" stroke="url(#sweep-gradient)" stroke-linecap="round" stroke-width="9"/>
  <path d="M320 216C414 185 524 179 650 191" stroke="url(#sweep-gradient)" stroke-linecap="round" stroke-width="6"/>
</svg>
